<svg xmlns="http://www.w3.org/2000/svg" xmlns:xlink="http://www.w3.org/1999/xlink" preserveAspectRatio="xMidYMid" width="40" height="48" viewBox="0 0 20 24">
  <defs>
    <style>
      .cls-1 {
        fill: #fff;
        fill-rule: evenodd;
		opacity:0.5;
      }
    </style>
  </defs>
  <path d="M17.545,24.000 L3.000,24.000 C2.448,24.000 2.000,23.552 2.000,23.000 L2.000,19.000 L1.000,19.000 C0.448,19.000 0.000,18.552 0.000,18.000 C0.000,17.448 0.448,17.000 1.000,17.000 L2.000,17.000 L2.000,13.000 L1.000,13.000 C0.448,13.000 0.000,12.552 0.000,12.000 C0.000,11.448 0.448,11.000 1.000,11.000 L2.000,11.000 L2.000,7.000 L1.000,7.000 C0.448,7.000 0.000,6.552 0.000,6.000 C0.000,5.448 0.448,5.000 1.000,5.000 L2.000,5.000 L2.000,1.000 C2.000,0.448 2.448,0.000 3.000,0.000 L17.545,0.000 C18.898,0.000 20.000,1.107 20.000,2.467 L20.000,21.533 C20.000,22.894 18.898,24.000 17.545,24.000 ZM18.000,2.467 C18.000,2.214 17.791,2.000 17.545,2.000 L4.000,2.000 L4.000,5.000 C4.552,5.000 5.000,5.448 5.000,6.000 C5.000,6.552 4.552,7.000 4.000,7.000 L4.000,11.000 C4.552,11.000 5.000,11.448 5.000,12.000 C5.000,12.552 4.552,13.000 4.000,13.000 L4.000,17.000 C4.552,17.000 5.000,17.448 5.000,18.000 C5.000,18.552 4.552,19.000 4.000,19.000 L4.000,22.000 L17.545,22.000 C17.791,22.000 18.000,21.786 18.000,21.533 L18.000,2.467 ZM14.333,17.000 L7.667,17.000 C6.748,17.000 6.000,16.215 6.000,15.250 L6.000,14.500 C6.000,14.452 6.021,14.411 6.027,14.365 C6.037,14.295 6.044,14.226 6.069,14.160 C6.091,14.099 6.125,14.048 6.157,13.994 C6.191,13.938 6.220,13.884 6.264,13.835 C6.311,13.783 6.368,13.746 6.424,13.704 C6.462,13.677 6.489,13.639 6.532,13.616 L8.449,12.602 C8.097,11.740 8.068,10.958 8.068,10.776 C8.068,10.766 8.063,10.759 8.063,10.749 L8.065,8.499 C8.065,8.473 8.077,8.452 8.079,8.427 C8.082,8.395 8.071,8.366 8.076,8.334 C8.319,6.892 9.826,6.000 11.083,6.000 C12.095,6.000 13.260,6.593 13.799,7.582 C13.921,7.648 14.000,7.761 14.000,8.000 L14.000,8.075 C14.025,8.161 14.059,8.243 14.074,8.334 C14.106,8.523 14.067,8.700 14.000,8.865 L14.000,10.353 C14.052,10.473 14.082,10.605 14.083,10.744 C14.084,10.865 14.071,11.699 13.692,12.617 L15.490,13.628 C15.530,13.650 15.553,13.687 15.588,13.713 C15.644,13.755 15.697,13.794 15.743,13.846 C15.786,13.895 15.817,13.949 15.850,14.004 C15.882,14.059 15.912,14.111 15.934,14.172 C15.957,14.238 15.966,14.305 15.975,14.375 C15.980,14.418 16.000,14.456 16.000,14.500 L16.000,15.250 C16.000,16.215 15.252,17.000 14.333,17.000 ZM11.842,13.871 C11.823,13.861 11.813,13.843 11.795,13.831 C11.771,13.816 11.744,13.809 11.721,13.791 C11.686,13.764 11.668,13.726 11.638,13.696 C11.589,13.647 11.544,13.601 11.507,13.544 C11.472,13.491 11.447,13.436 11.423,13.378 C11.398,13.318 11.376,13.260 11.363,13.196 C11.350,13.133 11.348,13.073 11.348,13.009 C11.347,12.945 11.348,12.884 11.360,12.820 C11.372,12.754 11.396,12.693 11.422,12.630 C11.438,12.590 11.439,12.548 11.460,12.510 C11.473,12.487 11.494,12.475 11.508,12.454 C11.522,12.433 11.525,12.409 11.541,12.389 C12.070,11.703 12.083,10.759 12.083,10.750 C12.083,10.741 12.088,10.735 12.088,10.726 L12.086,8.635 C12.009,8.349 11.534,8.000 11.083,8.000 C10.624,8.000 10.141,8.349 10.064,8.636 L10.063,10.730 C10.063,10.739 10.067,10.746 10.067,10.755 C10.068,10.786 10.083,11.713 10.604,12.389 C10.629,12.421 10.636,12.461 10.657,12.496 C10.668,12.514 10.686,12.525 10.696,12.544 C10.710,12.569 10.709,12.597 10.720,12.623 C10.750,12.697 10.774,12.770 10.786,12.848 C10.797,12.909 10.799,12.967 10.798,13.028 C10.796,13.088 10.792,13.144 10.779,13.203 C10.764,13.279 10.740,13.349 10.707,13.420 C10.689,13.460 10.670,13.497 10.646,13.535 C10.596,13.614 10.536,13.681 10.464,13.745 C10.448,13.759 10.441,13.778 10.424,13.791 C10.409,13.803 10.391,13.807 10.376,13.817 C10.342,13.841 10.318,13.875 10.280,13.895 L8.193,15.000 L13.849,15.000 L11.842,13.871 Z" class="cls-1"/>
</svg>
