<svg xmlns="http://www.w3.org/2000/svg" xmlns:xlink="http://www.w3.org/1999/xlink" preserveAspectRatio="xMidYMid" width="47.74" height="48" viewBox="0 0 23.87 24">
  <defs>
    <style>
      .cls-1 {
        fill: #fff;
        fill-rule: evenodd;
        opacity:0.7;
      }
    </style>
  </defs>
  <path d="M23.030,4.966 L23.030,11.000 C23.030,11.552 22.419,12.000 21.869,12.000 C21.319,12.000 21.030,11.552 21.030,11.000 L21.030,5.000 L2.968,5.000 L2.968,17.000 L21.869,17.000 C22.419,17.000 22.864,17.448 22.864,18.000 C22.864,18.552 22.419,19.000 21.869,19.000 L17.119,19.000 L19.677,22.396 C20.010,22.836 19.923,23.464 19.485,23.797 C19.305,23.934 19.094,24.000 18.886,24.000 C18.585,24.000 18.287,23.863 18.092,23.604 L14.776,19.204 C14.729,19.141 14.709,19.069 14.679,19.000 L9.164,19.000 C9.133,19.069 9.113,19.141 9.066,19.204 L5.751,23.604 C5.555,23.863 5.258,24.000 4.957,24.000 C4.748,24.000 4.537,23.934 4.358,23.797 C3.919,23.464 3.833,22.836 4.165,22.396 L6.724,19.000 L1.974,19.000 C1.424,19.000 0.979,18.552 0.979,18.000 L0.979,5.000 C0.429,5.000 -0.016,4.552 -0.016,4.000 C-0.016,3.448 0.429,3.000 0.979,3.000 L11.030,3.000 L11.030,1.000 C11.030,0.448 11.372,-0.000 11.921,-0.000 C12.471,-0.000 12.916,0.448 12.916,1.000 L12.916,3.000 L22.864,3.000 C23.414,3.000 23.859,3.448 23.859,4.000 C23.859,4.493 23.497,4.884 23.030,4.966 ZM22.472,15.919 L8.545,9.919 C8.040,9.702 7.806,9.114 8.023,8.606 C8.239,8.098 8.826,7.864 9.329,8.081 L23.255,14.081 C23.761,14.298 23.995,14.886 23.778,15.394 C23.617,15.773 23.249,16.001 22.864,16.001 C22.733,16.001 22.600,15.974 22.472,15.919 Z" class="cls-1"/>
</svg>
