<svg xmlns="http://www.w3.org/2000/svg" xmlns:xlink="http://www.w3.org/1999/xlink" preserveAspectRatio="xMidYMid" width="54" height="52" viewBox="0 0 27 26">
  <defs>
    <style>
      .cls-1 {
        fill: #fff;
        fill-rule: evenodd;
		opacity:0.5;
      }
    </style>
  </defs>
  <path d="M21.001,26.000 C17.692,26.000 15.000,23.308 15.000,20.000 C15.000,16.691 17.692,14.000 21.001,14.000 C24.309,14.000 27.000,16.691 27.000,20.000 C27.000,23.308 24.309,26.000 21.001,26.000 ZM21.001,16.000 C18.795,16.000 17.000,17.795 17.000,20.000 C17.000,22.205 18.795,24.000 21.001,24.000 C23.206,24.000 25.000,22.205 25.000,20.000 C25.000,17.795 23.206,16.000 21.001,16.000 ZM20.000,20.000 L20.000,19.000 L20.000,17.000 L22.000,17.000 L22.000,19.000 L24.000,19.000 L24.000,21.000 L20.000,21.000 L20.000,20.000 ZM19.000,8.000 C19.553,8.000 20.000,8.448 20.000,9.000 L20.000,11.000 C20.000,11.552 19.553,12.000 19.000,12.000 L17.000,12.000 C16.447,12.000 16.000,11.552 16.000,11.000 L16.000,9.000 C16.000,8.448 16.447,8.000 17.000,8.000 L19.000,8.000 ZM7.000,12.000 L5.000,12.000 C4.447,12.000 4.000,11.552 4.000,11.000 L4.000,9.000 C4.000,8.448 4.447,8.000 5.000,8.000 L7.000,8.000 C7.553,8.000 8.000,8.448 8.000,9.000 L8.000,11.000 C8.000,11.552 7.553,12.000 7.000,12.000 ZM8.000,17.000 C8.000,17.552 7.553,18.000 7.000,18.000 L5.000,18.000 C4.447,18.000 4.000,17.552 4.000,17.000 L4.000,15.000 C4.000,14.448 4.447,14.000 5.000,14.000 L7.000,14.000 C7.553,14.000 8.000,14.448 8.000,15.000 L8.000,17.000 ZM23.000,12.000 C22.447,12.000 22.000,11.552 22.000,11.000 L22.000,4.000 L17.000,4.000 L17.000,5.000 C17.000,5.552 16.553,6.000 16.000,6.000 C15.447,6.000 15.000,5.552 15.000,5.000 L15.000,4.000 L9.000,4.000 L9.000,5.000 C9.000,5.552 8.553,6.000 8.000,6.000 C7.447,6.000 7.000,5.552 7.000,5.000 L7.000,4.000 L2.000,4.000 L2.000,22.000 L12.000,22.000 C12.553,22.000 13.000,22.448 13.000,23.000 C13.000,23.552 12.553,24.000 12.000,24.000 L2.000,24.000 C0.898,24.000 0.000,23.103 0.000,22.000 L0.000,4.000 C0.000,2.897 0.898,2.000 2.000,2.000 L7.000,2.000 L7.000,1.000 C7.000,0.448 7.447,0.000 8.000,0.000 C8.553,0.000 9.000,0.448 9.000,1.000 L9.000,2.000 L15.000,2.000 L15.000,1.000 C15.000,0.448 15.447,0.000 16.000,0.000 C16.553,0.000 17.000,0.448 17.000,1.000 L17.000,2.000 L22.000,2.000 C23.103,2.000 24.000,2.897 24.000,4.000 L24.000,11.000 C24.000,11.552 23.553,12.000 23.000,12.000 ZM13.000,12.000 L11.000,12.000 C10.447,12.000 10.000,11.552 10.000,11.000 L10.000,9.000 C10.000,8.448 10.447,8.000 11.000,8.000 L13.000,8.000 C13.553,8.000 14.000,8.448 14.000,9.000 L14.000,11.000 C14.000,11.552 13.553,12.000 13.000,12.000 ZM11.000,18.000 C10.447,18.000 10.000,17.552 10.000,17.000 L10.000,15.000 C10.000,14.448 10.447,14.000 11.000,14.000 L13.000,14.000 C13.553,14.000 14.000,14.448 14.000,15.000 L14.000,17.000 C14.000,17.552 13.553,18.000 13.000,18.000 L11.000,18.000 Z" class="cls-1"/>
</svg>
