<svg xmlns="http://www.w3.org/2000/svg" xmlns:xlink="http://www.w3.org/1999/xlink" preserveAspectRatio="xMidYMid" width="48" height="39.88" viewBox="0 0 24 19.94">
  <defs>
    <style>
      .cls-1 {
        fill: #fff;
        fill-rule: evenodd;
		opacity:0.5;
      }
    </style>
  </defs>
  <path d="M22.000,17.934 C20.898,17.934 20.000,17.039 20.000,15.939 C20.000,15.203 20.405,14.566 21.000,14.220 L21.000,8.676 L18.878,9.886 C18.950,10.023 19.000,10.173 19.000,10.338 L19.000,17.324 C19.000,17.875 18.553,18.322 18.000,18.322 C17.911,18.322 17.831,18.294 17.749,18.272 C16.607,18.924 14.392,19.930 11.500,19.930 C8.609,19.930 6.394,18.924 5.251,18.272 C5.169,18.294 5.089,18.322 5.000,18.322 C4.447,18.322 4.000,17.875 4.000,17.324 L4.000,10.338 C4.000,10.173 4.050,10.023 4.122,9.886 L0.504,7.823 C0.192,7.645 0.000,7.315 0.000,6.956 C0.000,6.598 0.192,6.267 0.504,6.090 L11.004,0.102 C11.311,-0.073 11.689,-0.073 11.996,0.102 L22.496,6.090 C22.808,6.267 23.000,6.598 23.000,6.956 C23.000,7.016 22.965,7.065 22.955,7.122 C22.972,7.196 23.000,7.265 23.000,7.344 L23.000,14.220 C23.595,14.566 24.000,15.203 24.000,15.939 C24.000,17.039 23.103,17.934 22.000,17.934 ZM17.000,16.402 L17.000,10.957 L11.996,13.811 C11.843,13.898 11.671,13.942 11.500,13.942 C11.329,13.942 11.157,13.898 11.004,13.811 L6.000,10.957 L6.000,16.398 C6.810,16.891 8.833,17.934 11.500,17.934 C14.188,17.934 16.195,16.896 17.000,16.402 ZM11.500,2.118 L3.016,6.956 L11.500,11.795 L19.984,6.956 L11.500,2.118 Z" class="cls-1"/>
</svg>
