<svg xmlns="http://www.w3.org/2000/svg" xmlns:xlink="http://www.w3.org/1999/xlink" preserveAspectRatio="xMidYMid" width="44" height="48" viewBox="0 0 22 24">
  <defs>
    <style>
      .cls-1 {
        fill: #fff;
        fill-rule: evenodd;
        opacity:0.7;
      }
    </style>
  </defs>
  <path d="M20.000,15.320 L20.000,20.000 C20.000,21.015 19.258,21.967 18.273,22.213 L11.242,23.970 C11.164,23.990 11.084,23.999 11.007,23.999 C11.005,23.999 11.003,24.000 11.001,24.000 C11.001,24.000 11.001,24.000 11.000,24.000 C11.000,24.000 11.000,24.000 11.000,24.000 C11.000,24.000 11.000,24.000 11.000,24.000 C10.999,24.000 10.999,24.000 10.999,24.000 C10.997,24.000 10.995,23.999 10.993,23.999 C10.916,23.999 10.836,23.990 10.758,23.970 L3.728,22.213 C2.742,21.967 2.000,21.015 2.000,20.000 L2.000,15.320 C0.970,14.905 0.000,13.782 0.000,12.500 C0.000,11.218 0.970,10.094 2.000,9.680 L2.000,9.666 C2.000,9.229 2.199,8.822 2.547,8.551 C2.976,8.217 3.583,8.116 4.212,8.272 L11.000,9.970 L17.788,8.272 C18.418,8.116 19.025,8.217 19.453,8.551 C19.801,8.822 20.000,9.229 20.000,9.666 L20.000,9.680 C21.030,10.095 22.000,11.218 22.000,12.500 C22.000,13.782 21.030,14.905 20.000,15.320 ZM2.736,11.520 C2.490,11.619 2.000,12.056 2.000,12.500 C2.000,12.936 2.474,13.365 2.739,13.476 C2.839,13.349 3.000,13.016 3.000,12.500 C3.000,11.978 2.835,11.642 2.736,11.520 ZM4.000,15.036 L4.000,20.000 C4.000,20.090 4.125,20.251 4.212,20.273 L10.000,21.719 L10.000,11.781 L4.381,10.376 C4.767,10.911 5.000,11.653 5.000,12.500 C5.000,13.596 4.609,14.514 4.000,15.036 ZM18.000,15.036 C17.391,14.514 17.000,13.596 17.000,12.500 C17.000,11.659 17.230,10.923 17.611,10.389 L12.000,11.782 L12.000,21.719 L17.788,20.273 C17.875,20.251 18.000,20.090 18.000,20.000 L18.000,15.036 ZM19.261,11.524 C19.161,11.650 19.000,11.984 19.000,12.500 C19.000,13.016 19.161,13.349 19.261,13.476 C19.526,13.365 20.000,12.936 20.000,12.500 C20.000,12.064 19.525,11.634 19.261,11.524 ZM11.000,8.000 C8.794,8.000 7.000,6.206 7.000,4.000 C7.000,1.794 8.794,0.000 11.000,0.000 C13.206,0.000 15.000,1.794 15.000,4.000 C15.000,6.206 13.206,8.000 11.000,8.000 ZM11.000,2.000 C9.897,2.000 9.000,2.897 9.000,4.000 C9.000,5.103 9.897,6.000 11.000,6.000 C12.102,6.000 13.000,5.103 13.000,4.000 C13.000,2.897 12.102,2.000 11.000,2.000 Z" class="cls-1"/>
</svg>
