<?xml version="1.0" encoding="UTF-8" standalone="no"?>
<svg width="522px" height="89px" viewBox="0 0 522 89" version="1.1" xmlns="http://www.w3.org/2000/svg" xmlns:xlink="http://www.w3.org/1999/xlink" xmlns:sketch="http://www.bohemiancoding.com/sketch/ns">
    <!-- Generator: Sketch 3.5.2 (25235) - http://www.bohemiancoding.com/sketch -->
    <title>logo</title>
    <defs>
        <path id="path-1" d="M0,0.663 L521.207,0.663 L521.207,89 L0,89 L0,0.663 Z"></path>
        <path id="path-3" d="M0,0.663 L521.207,0.663 L521.207,89 L0,89 L0,0.663 Z"></path>
        <path id="path-5" d="M0,0.663 L521.207,0.663 L521.207,89 L0,89 L0,0.663 Z"></path>
    </defs>
    <g id="Page-1" stroke="none" stroke-width="1" fill="none" fill-rule="evenodd" sketch:type="MSPage">
        <g id="logo" sketch:type="MSLayerGroup">
            <g id="Group-3">
                <mask id="mask-2" sketch:name="Clip 2" fill="white">
                    <use xlink:href="#path-1"></use>
                </mask>
                <g id="Clip-2"></g>
                <path d="M79.9751,36.5332 C79.9751,36.8832 79.9711,37.2332 79.9651,37.5792 C79.4831,57.4982 65.3461,73.4692 47.9761,73.4692 C30.3041,73.4692 15.9921,56.9312 15.9921,36.5332 L15.9921,16.6712 L39.9621,16.6712 L39.9621,37.5792 L56.0081,37.5792 L56.0081,0.6632 L15.9911,0.6632 L15.9911,16.6712 L0.0001,16.6712 L0.0001,36.6162 C0.0001,65.5472 21.4791,89.0002 47.9771,89.0002 C74.1811,89.0002 95.4771,66.0642 95.9471,37.5792 C95.9521,37.2602 95.9551,36.9402 95.9551,36.6162 L95.9551,16.6712 L79.9751,16.6712 L79.9751,36.5332 Z" id="Fill-1" fill="#FEFEFE" sketch:type="MSShapeGroup" mask="url(#mask-2)"></path>
            </g>
            <path d="M316.5161,25.0239 C319.5471,25.0239 322.0061,27.4809 322.0061,30.5099 C322.0061,33.5419 319.5471,35.9969 316.5161,35.9969 C313.4871,35.9969 311.0341,33.5419 311.0341,30.5099 C311.0341,27.4809 313.4871,25.0239 316.5161,25.0239 M316.5161,42.2649 C323.3641,42.2649 328.9111,37.0019 328.9111,30.5099 C328.9111,24.0199 323.3641,18.7569 316.5161,18.7569 C309.6721,18.7569 304.1271,24.0199 304.1271,30.5099 C304.1271,37.0019 309.6721,42.2649 316.5161,42.2649" id="Fill-4" fill="#FEFEFE" sketch:type="MSShapeGroup"></path>
            <path d="M424.6255,33.0444 C427.8035,33.0444 430.3775,35.6174 430.3775,38.7914 C430.3775,41.9704 427.8035,44.5424 424.6255,44.5424 C421.4535,44.5424 418.8815,41.9704 418.8815,38.7914 C418.8815,35.6174 421.4535,33.0444 424.6255,33.0444 M412.1415,39.0934 C412.1415,45.8904 417.7195,51.1004 424.6255,51.1004 C431.5335,51.1004 437.1505,45.8904 437.1505,39.0934 C437.1505,36.6374 435.7015,33.6124 434.1605,31.7264 L440.7235,31.7264 L440.7235,25.5624 L428.3575,25.5624 L428.3575,22.5364 L420.4185,22.5364 L420.4185,25.5624 L407.7795,25.5624 L407.7795,31.7264 L415.0925,31.7264 C413.3345,33.6684 412.1415,36.6374 412.1415,39.0934" id="Fill-6" fill="#FEFEFE" sketch:type="MSShapeGroup"></path>
            <path d="M157.2119,39.9946 L150.3209,39.9946 L150.3209,24.5146 L142.3769,24.5146 L142.3769,56.7656 L120.0229,56.7656 L120.0229,30.6286 L134.5429,30.6286 L134.5429,24.5146 L112.1959,24.5146 L112.0789,24.5146 L112.0789,62.8346 L112.1959,62.8346 L142.3769,62.8346 L142.3769,70.9056 L150.3209,70.9056 L150.3209,46.1556 L157.2119,46.1556 L157.2119,70.9056 L165.1569,70.9056 L165.1569,24.5146 L157.2119,24.5146 L157.2119,39.9946 Z" id="Fill-8" fill="#FEFEFE" sketch:type="MSShapeGroup"></path>
            <path d="M394.809,39.9946 L387.918,39.9946 L387.918,24.5146 L379.975,24.5146 L379.975,56.7656 L357.618,56.7656 L357.618,30.6286 L372.139,30.6286 L372.139,24.5146 L349.797,24.5146 L349.674,24.5146 L349.674,62.8346 L349.797,62.8346 L379.975,62.8346 L379.975,70.4996 L387.918,70.4996 L387.918,46.1556 L394.809,46.1556 L394.809,70.4996 L402.752,70.4996 L402.752,24.5146 L394.809,24.5146 L394.809,39.9946 Z" id="Fill-10" fill="#FEFEFE" sketch:type="MSShapeGroup"></path>
            <path d="M222.3276,24.5142 L172.0416,24.5142 L172.0416,30.7382 L214.3856,30.7382 L214.3856,56.3592 L170.3066,56.3592 L170.3066,62.4292 L192.4546,62.4292 L192.4546,70.4782 L200.3996,70.4782 L200.3996,62.4292 L224.4266,62.4292 L224.4266,56.3592 L222.3276,56.3592 L222.3276,24.5142 Z" id="Fill-12" fill="#FEFEFE" sketch:type="MSShapeGroup"></path>
            <path d="M282.2817,24.5142 L231.9277,24.5142 L231.9277,30.5722 L274.3387,30.5722 L274.3387,56.3592 L265.6627,56.3592 L265.6627,43.7062 L257.7237,43.7062 L257.7237,56.3592 L246.5237,56.3592 L246.5237,43.6272 L238.5797,43.6272 L238.5797,56.3592 L229.9667,56.3592 L229.9667,62.4292 L284.2137,62.4292 L284.2137,56.3592 L282.2817,56.3592 L282.2817,24.5142 Z" id="Fill-14" fill="#FEFEFE" sketch:type="MSShapeGroup"></path>
            <g id="Group-18">
                <mask id="mask-4" sketch:name="Clip 17" fill="white">
                    <use xlink:href="#path-3"></use>
                </mask>
                <g id="Clip-17"></g>
                <path d="M519.2778,56.3588 L519.2778,24.5138 L468.9208,24.5138 L468.9208,30.5718 L511.3348,30.5718 L511.3348,56.3588 L503.4648,56.3588 L503.4648,43.7068 L495.5238,43.7068 L495.5238,56.3588 L483.5198,56.3588 L483.5198,43.6278 L475.5728,43.6278 L475.5728,56.3588 L466.9618,56.3588 L466.9618,62.4288 L521.2078,62.4288 L521.2078,56.3588 L519.2778,56.3588 Z" id="Fill-16" fill="#FEFEFE" sketch:type="MSShapeGroup" mask="url(#mask-4)"></path>
            </g>
            <mask id="mask-6" sketch:name="Clip 20" fill="white">
                <use xlink:href="#path-5"></use>
            </mask>
            <g id="Clip-20"></g>
            <path d="M309.342,50.404 L323.074,50.404 L323.074,56.359 L309.342,56.359 L309.342,50.404 Z M289.151,50.404 L301.393,50.404 L301.393,56.359 L291.221,56.359 L291.221,62.429 L333.002,62.429 L333.002,70.443 L341.336,70.443 L341.336,56.359 L331.018,56.359 L331.018,50.404 L343.379,50.404 L343.379,44.464 L289.151,44.464 L289.151,50.404 Z" id="Fill-19" fill="#FEFEFE" sketch:type="MSShapeGroup" mask="url(#mask-6)"></path>
            <path d="M408.9868,60.8101 L449.2158,60.8101 L449.2158,70.2491 L457.1568,70.2491 L457.1568,54.7411 L408.9868,54.7411 L408.9868,60.8101 Z" id="Fill-21" fill="#FEFEFE" sketch:type="MSShapeGroup" mask="url(#mask-6)"></path>
            <path d="M457.1606,24.5142 L449.2156,24.5142 L449.2156,50.6572 L457.1606,50.6572 L457.1606,40.5762 L463.2696,40.5762 L463.2696,34.4142 L457.1606,34.4142 L457.1606,24.5142 Z" id="Fill-22" fill="#FEFEFE" sketch:type="MSShapeGroup" mask="url(#mask-6)"></path>
        </g>
    </g>
</svg>