<svg xmlns="http://www.w3.org/2000/svg" xmlns:xlink="http://www.w3.org/1999/xlink" preserveAspectRatio="xMidYMid" width="48" height="47.94" viewBox="0 0 24 23.97">
  <defs>
    <style>
      .cls-1 {
        fill: #fff;
        fill-rule: evenodd;
        opacity:0.5;
      }
    </style>
  </defs>
  <path d="M23.551,23.796 C23.385,23.905 23.192,23.960 23.000,23.960 C22.866,23.960 22.732,23.933 22.606,23.879 L15.976,21.043 L8.352,23.897 C8.341,23.901 8.331,23.899 8.321,23.903 C8.218,23.938 8.111,23.961 8.000,23.961 C7.967,23.961 7.938,23.945 7.906,23.941 C7.802,23.931 7.699,23.919 7.607,23.880 C7.607,23.879 7.607,23.879 7.606,23.879 L0.606,20.885 C0.238,20.728 0.000,20.367 0.000,19.968 L0.000,1.005 C0.000,0.684 0.154,0.383 0.415,0.195 C0.676,0.007 1.011,-0.043 1.316,0.058 L4.316,1.056 C4.840,1.231 5.123,1.796 4.948,2.319 C4.773,2.841 4.212,3.126 3.684,2.949 L2.000,2.389 L2.000,19.310 L7.000,21.449 L7.000,17.972 C7.000,17.421 7.447,16.974 8.000,16.974 C8.553,16.974 9.000,17.421 9.000,17.972 L9.000,21.522 L15.000,19.276 L15.000,17.972 C15.000,17.421 15.447,16.974 16.000,16.974 C16.553,16.974 17.000,17.421 17.000,17.972 L17.000,19.310 L22.000,21.448 L22.000,4.718 L19.684,3.948 C19.160,3.773 18.877,3.208 19.052,2.685 C19.227,2.163 19.788,1.879 20.316,2.054 L23.316,3.052 C23.725,3.188 24.000,3.569 24.000,3.999 L24.000,22.962 C24.000,23.298 23.831,23.611 23.551,23.796 ZM12.640,17.741 C12.454,17.895 12.227,17.972 12.000,17.972 C11.772,17.972 11.546,17.895 11.360,17.741 C11.101,17.525 5.000,12.393 5.000,6.843 C5.000,3.074 8.141,0.007 12.000,0.007 C15.859,0.007 19.000,3.074 19.000,6.843 C19.000,12.393 12.899,17.525 12.640,17.741 ZM12.000,2.003 C9.243,2.003 7.000,4.174 7.000,6.843 C7.000,10.505 10.522,14.227 12.000,15.628 C13.477,14.227 17.000,10.505 17.000,6.843 C17.000,4.174 14.757,2.003 12.000,2.003 ZM10.000,6.993 C10.000,5.892 10.898,4.997 12.000,4.997 C13.103,4.997 14.000,5.892 14.000,6.993 C14.000,8.094 13.103,8.990 12.000,8.990 C10.898,8.990 10.000,8.094 10.000,6.993 Z" class="cls-1"/>
</svg>
