<svg xmlns="http://www.w3.org/2000/svg" xmlns:xlink="http://www.w3.org/1999/xlink" preserveAspectRatio="xMidYMid" width="48" height="44" viewBox="0 0 24 22">
  <defs>
    <style>
      .cls-1 {
        fill: #000;
        fill-rule: evenodd;
      }
    </style>
  </defs>
  <path d="M12.000,19.000 L10.565,19.000 C8.608,21.845 4.223,21.995 4.026,22.000 C4.018,22.000 4.009,22.000 4.000,22.000 C3.622,22.000 3.275,21.786 3.106,21.446 C2.932,21.098 2.977,20.681 3.218,20.377 C3.234,20.356 4.655,18.548 4.936,16.656 C2.446,15.409 0.000,12.775 0.000,9.461 C0.000,4.244 5.383,-0.000 12.000,-0.000 C18.617,-0.000 24.000,4.244 24.000,9.461 C24.000,14.721 18.617,19.000 12.000,19.000 ZM12.000,2.000 C6.486,2.000 2.000,5.347 2.000,9.461 C2.000,12.025 4.191,14.239 6.355,15.102 C6.735,15.254 6.984,15.622 6.984,16.031 C6.984,17.358 6.512,18.656 6.004,19.667 C7.159,19.350 8.496,18.734 9.111,17.541 C9.283,17.209 9.626,17.000 10.000,17.000 L12.000,17.000 C17.514,17.000 22.000,13.618 22.000,9.461 C22.000,5.347 17.514,2.000 12.000,2.000 ZM12.000,14.000 C8.624,14.000 6.387,11.801 6.293,11.707 C5.902,11.316 5.902,10.684 6.293,10.293 C6.684,9.902 7.316,9.902 7.707,10.293 C7.722,10.307 9.474,12.000 12.000,12.000 C14.556,12.000 16.276,10.310 16.293,10.293 C16.684,9.902 17.316,9.902 17.707,10.293 C18.098,10.684 18.098,11.316 17.707,11.707 C17.613,11.801 15.375,14.000 12.000,14.000 ZM15.000,8.000 C14.447,8.000 14.000,7.553 14.000,7.000 C14.000,6.447 14.447,6.000 15.000,6.000 C15.553,6.000 16.000,6.447 16.000,7.000 C16.000,7.553 15.553,8.000 15.000,8.000 ZM9.000,8.000 C8.447,8.000 8.000,7.553 8.000,7.000 C8.000,6.447 8.447,6.000 9.000,6.000 C9.553,6.000 10.000,6.447 10.000,7.000 C10.000,7.553 9.553,8.000 9.000,8.000 Z" class="cls-1"/>
</svg>
