<svg xmlns="http://www.w3.org/2000/svg" xmlns:xlink="http://www.w3.org/1999/xlink" preserveAspectRatio="xMidYMid" width="47.876" height="43.94" viewBox="0 0 23.938 21.97">
  <defs>
    <style>
      .cls-1 {
        fill: #fff;
        fill-rule: evenodd;
        opacity:0.7;
      }
    </style>
  </defs>
  <path d="M23.070,21.229 L17.612,21.954 C17.568,21.960 17.524,21.963 17.480,21.963 C17.262,21.963 17.048,21.891 16.873,21.756 C16.662,21.595 16.525,21.356 16.491,21.093 L13.985,1.833 C13.914,1.287 14.299,0.785 14.846,0.714 L20.331,-0.004 C20.595,-0.039 20.860,0.033 21.069,0.195 C21.279,0.357 21.416,0.595 21.450,0.858 L23.927,20.111 C23.998,20.657 23.614,21.157 23.070,21.229 ZM19.599,2.106 L16.093,2.566 L16.358,4.602 L19.861,4.144 L19.599,2.106 ZM20.116,6.125 L16.615,6.583 L18.341,19.843 L21.822,19.379 L20.116,6.125 ZM19.945,16.897 C20.496,16.897 20.943,17.344 20.943,17.896 C20.943,18.449 20.496,18.930 19.945,18.930 C19.394,18.930 18.948,18.520 18.948,17.968 L18.948,17.896 C18.948,17.344 19.394,16.897 19.945,16.897 ZM12.977,21.963 L7.589,21.963 L0.990,21.963 C0.439,21.963 -0.007,21.516 -0.007,20.965 L-0.007,0.986 C-0.007,0.434 0.439,-0.013 0.990,-0.013 L7.589,-0.013 L12.941,-0.013 C12.948,-0.013 12.953,-0.009 12.959,-0.009 C12.965,-0.009 12.971,-0.013 12.977,-0.013 C13.528,-0.013 13.975,0.434 13.975,0.986 L13.975,20.965 C13.975,21.516 13.528,21.963 12.977,21.963 ZM5.986,1.985 L1.988,1.985 L1.988,3.983 L5.986,3.983 L5.986,1.985 ZM5.986,5.981 L1.988,5.981 L1.988,19.965 L5.986,19.965 L5.986,5.981 ZM7.981,19.965 L11.979,19.965 L11.979,5.981 L7.981,5.981 L7.981,19.965 ZM7.981,3.983 L11.979,3.983 L11.979,1.985 L7.981,1.985 L7.981,3.983 ZM10.687,18.677 C10.498,18.856 10.248,18.967 9.979,18.967 C9.720,18.967 9.460,18.856 9.270,18.667 C9.091,18.486 8.981,18.227 8.981,17.968 C8.981,17.708 9.091,17.448 9.281,17.258 C9.640,16.889 10.318,16.889 10.687,17.258 C10.867,17.448 10.976,17.708 10.976,17.968 C10.976,18.227 10.867,18.486 10.687,18.677 ZM4.692,17.258 C4.881,17.448 4.981,17.708 4.981,17.968 C4.981,18.227 4.881,18.486 4.692,18.677 C4.502,18.856 4.253,18.967 3.983,18.967 C3.724,18.967 3.464,18.856 3.285,18.667 C3.095,18.486 2.986,18.227 2.986,17.968 C2.986,17.708 3.095,17.448 3.285,17.258 C3.644,16.889 4.312,16.889 4.692,17.258 Z" class="cls-1"/>
</svg>
