<svg xmlns="http://www.w3.org/2000/svg" xmlns:xlink="http://www.w3.org/1999/xlink" preserveAspectRatio="xMidYMid" width="48" height="32" viewBox="0 0 24 16">
  <defs>
    <style>
      .cls-1 {
        fill: #fff;
        fill-rule: evenodd;
        opacity:0.7;
      }
    </style>
  </defs>
  <path d="M23.000,16.000 L1.000,16.000 C0.448,16.000 -0.000,15.552 -0.000,15.000 L-0.000,1.000 C-0.000,0.448 0.448,-0.000 1.000,-0.000 L23.000,-0.000 C23.552,-0.000 24.000,0.448 24.000,1.000 L24.000,15.000 C24.000,15.552 23.552,16.000 23.000,16.000 ZM22.000,2.000 L2.000,2.000 L2.000,14.000 L5.000,14.000 L5.000,13.000 C5.000,12.448 5.448,12.000 6.000,12.000 C6.552,12.000 7.000,12.448 7.000,13.000 L7.000,14.000 L17.000,14.000 L17.000,13.000 C17.000,12.448 17.448,12.000 18.000,12.000 C18.552,12.000 19.000,12.448 19.000,13.000 L19.000,14.000 L22.000,14.000 L22.000,2.000 ZM19.000,10.000 L14.000,10.000 C13.448,10.000 13.000,9.552 13.000,9.000 C13.000,8.448 13.448,8.000 14.000,8.000 L19.000,8.000 C19.552,8.000 20.000,8.448 20.000,9.000 C20.000,9.552 19.552,10.000 19.000,10.000 ZM19.000,6.000 L14.000,6.000 C13.448,6.000 13.000,5.552 13.000,5.000 C13.000,4.448 13.448,4.000 14.000,4.000 L19.000,4.000 C19.552,4.000 20.000,4.448 20.000,5.000 C20.000,5.552 19.552,6.000 19.000,6.000 ZM9.626,10.000 L4.378,10.000 C4.172,10.000 4.004,9.832 4.004,9.625 L4.004,9.199 C4.004,8.992 4.378,8.824 4.378,8.824 L6.004,7.949 C5.481,7.529 5.254,6.660 5.254,6.252 L5.254,5.500 C5.254,4.499 6.173,4.002 7.002,4.002 C7.829,4.002 8.754,4.499 8.754,5.500 L8.754,6.252 C8.754,6.701 8.514,7.543 7.993,7.953 L9.626,8.824 C9.626,8.824 10.000,8.978 10.000,9.199 L10.000,9.625 C10.000,9.832 9.833,10.000 9.626,10.000 Z" class="cls-1"/>
</svg>
