<svg xmlns="http://www.w3.org/2000/svg" xmlns:xlink="http://www.w3.org/1999/xlink" preserveAspectRatio="xMidYMid" width="48.26" height="47.94" viewBox="0 0 24.13 23.97">
  <defs>
    <style>
      .cls-1 {
        fill: #000;
        fill-rule: evenodd;
      }
    </style>
  </defs>
  <path d="M22.699,5.973 L11.265,15.678 C11.238,16.814 10.979,19.588 9.184,21.366 C8.030,22.515 6.410,23.390 4.743,23.766 C4.167,23.896 3.623,23.960 3.126,23.960 C2.115,23.960 1.295,23.696 0.779,23.183 C-0.819,21.595 0.122,17.304 2.609,14.836 C4.401,13.057 7.197,12.798 8.340,12.771 L18.118,1.413 C18.843,0.558 19.853,0.040 20.887,-0.004 C21.787,-0.042 22.614,0.276 23.232,0.889 C23.850,1.502 24.169,2.328 24.132,3.215 C24.088,4.242 23.566,5.247 22.699,5.973 ZM21.810,2.302 C21.535,2.028 21.206,1.986 20.974,1.991 C20.500,2.011 20.019,2.272 19.651,2.705 L9.567,14.420 C9.555,14.434 9.537,14.439 9.525,14.453 C9.470,14.510 9.408,14.552 9.341,14.595 C9.296,14.625 9.253,14.656 9.204,14.678 C9.144,14.704 9.081,14.715 9.016,14.730 C8.948,14.744 8.884,14.758 8.815,14.759 C8.793,14.759 8.775,14.769 8.752,14.768 C8.722,14.767 5.644,14.645 4.031,16.248 C1.998,18.266 1.744,21.317 2.201,21.771 C2.349,21.917 3.117,22.085 4.299,21.819 C5.605,21.524 6.867,20.844 7.762,19.954 C9.377,18.354 9.256,15.298 9.254,15.267 C9.253,15.245 9.263,15.227 9.264,15.205 C9.265,15.135 9.280,15.069 9.295,15.001 C9.309,14.942 9.320,14.884 9.344,14.829 C9.369,14.770 9.407,14.719 9.443,14.666 C9.481,14.611 9.517,14.558 9.565,14.512 C9.581,14.496 9.588,14.475 9.606,14.460 L21.398,4.450 C21.840,4.080 22.102,3.600 22.123,3.130 C22.132,2.903 22.085,2.575 21.810,2.302 Z" class="cls-1"/>
</svg>
