<?xml version="1.0" encoding="UTF-8" standalone="no"?>
<svg width="398px" height="366px" viewBox="0 0 398 366" version="1.1" xmlns="http://www.w3.org/2000/svg" xmlns:xlink="http://www.w3.org/1999/xlink" xmlns:sketch="http://www.bohemiancoding.com/sketch/ns">
    <!-- Generator: Sketch 3.5.2 (25235) - http://www.bohemiancoding.com/sketch -->
    <title>Page 1</title>
    <desc>Created with Sketch.</desc>
    <defs>
        <path id="path-1" d="M0,0.003 L397.571,0.003 L397.571,366 L0,366 L0,0.003 Z"></path>
    </defs>
    <g id="Page-1" stroke="none" stroke-width="1" fill="none" fill-rule="evenodd" sketch:type="MSPage">
        <g sketch:type="MSLayerGroup">
            <path d="M66.2571,0.0033 L66.2571,66.3263 L165.5771,66.3263 L165.5771,152.9633 L232.0591,152.9633 L232.0591,0.0033 L66.2571,0.0033 Z" id="Fill-1" fill="#FEFEFE" sketch:type="MSShapeGroup"></path>
            <g id="Group-4">
                <mask id="mask-2" sketch:name="Clip 3" fill="white">
                    <use xlink:href="#path-1"></use>
                </mask>
                <g id="Clip-3"></g>
                <path d="M331.3604,66.3262 L331.3604,148.6182 C331.3604,150.0692 331.3424,151.5202 331.3074,152.9622 C329.3184,235.4742 270.7434,301.6562 198.7794,301.6562 C125.5574,301.6562 66.2624,233.1382 66.2624,148.6182 L66.2624,66.3262 L0.0004,66.3262 L0.0004,148.9692 C0.0004,268.8312 88.9974,366.0002 198.7874,366.0002 C307.3554,366.0002 395.5894,270.9822 397.5394,152.9622 C397.5604,151.6352 397.5714,150.3032 397.5714,148.9692 L397.5714,66.3262 L331.3604,66.3262 Z" id="Fill-2" fill="#FEFEFE" sketch:type="MSShapeGroup" mask="url(#mask-2)"></path>
            </g>
        </g>
    </g>
</svg>