<?xml version="1.0" encoding="UTF-8" standalone="no"?>
<svg width="398px" height="366px" viewBox="0 0 398 366" version="1.1" xmlns="http://www.w3.org/2000/svg" xmlns:xlink="http://www.w3.org/1999/xlink" xmlns:sketch="http://www.bohemiancoding.com/sketch/ns">
    <!-- Generator: Sketch 3.5.2 (25235) - http://www.bohemiancoding.com/sketch -->
    <title>Page 1</title>
    <desc>Created with Sketch.</desc>
    <defs>
        <path id="path-1" d="M0,0.003 L397.571,0.003 L397.571,366 L0,366 L0,0.003 Z"></path>
        <path id="path-3" d="M0,0.003 L397.571,0.003 L397.571,366 L0,366 L0,0.003 Z"></path>
    </defs>
    <g id="Page-1" stroke="none" stroke-width="1" fill="none" fill-rule="evenodd" sketch:type="MSPage">
        <g sketch:type="MSLayerGroup">
            <path d="M66.2571,0.0033 L66.2571,66.3263 L165.5771,66.3263 L165.5771,152.9633 L232.0591,152.9633 L232.0591,0.0033 L66.2571,0.0033 Z" id="Fill-1" fill="#00A85F" sketch:type="MSShapeGroup"></path>
            <g id="Group-8">
                <g id="Group-4">
                    <mask id="mask-2" sketch:name="Clip 3" fill="white">
                        <use xlink:href="#path-1"></use>
                    </mask>
                    <g id="Clip-3"></g>
                    <path d="M397.5391,152.9624 C397.5601,151.6344 397.5711,150.3024 397.5711,148.9694 L397.5711,66.3264 L331.3601,66.3264 L331.3601,148.6184 C331.3601,150.0694 331.3431,151.5204 331.3071,152.9624 L397.5391,152.9624 Z" id="Fill-2" fill="#00A85F" sketch:type="MSShapeGroup" mask="url(#mask-2)"></path>
                </g>
                <g id="Group-7">
                    <mask id="mask-4" sketch:name="Clip 6" fill="white">
                        <use xlink:href="#path-3"></use>
                    </mask>
                    <g id="Clip-6"></g>
                    <path d="M331.3076,152.9624 C329.3186,235.4744 270.7436,301.6564 198.7796,301.6564 C125.5576,301.6564 66.2626,233.1374 66.2626,148.6184 L66.2626,66.3264 L-0.0004,66.3264 L-0.0004,148.9694 C-0.0004,268.8314 88.9976,366.0004 198.7876,366.0004 C307.3556,366.0004 395.5886,270.9824 397.5396,152.9624 L331.3076,152.9624 Z" id="Fill-5" fill="#0080CC" sketch:type="MSShapeGroup" mask="url(#mask-4)"></path>
                </g>
            </g>
        </g>
    </g>
</svg>