<svg xmlns="http://www.w3.org/2000/svg" xmlns:xlink="http://www.w3.org/1999/xlink" preserveAspectRatio="xMidYMid" width="47.82" height="43.88" viewBox="0 0 23.91 21.94">
  <defs>
    <style>
      .cls-1 {
        fill: #fff;
        fill-rule: evenodd;
        opacity:0.5;
      }
    </style>
  </defs>
  <path d="M22.927,9.983 C22.922,9.983 22.914,9.983 22.907,9.983 L20.915,9.983 L20.915,16.964 L21.911,16.964 C22.462,16.964 22.907,17.411 22.907,17.962 C22.907,18.512 22.462,18.959 21.911,18.959 L1.991,18.959 C1.441,18.959 0.995,18.512 0.995,17.962 C0.995,17.411 1.441,16.964 1.991,16.964 L2.987,16.964 L2.987,9.983 L0.995,9.983 C0.563,9.983 0.181,9.705 0.048,9.293 C-0.085,8.883 0.061,8.433 0.410,8.179 L11.366,0.200 C11.714,-0.054 12.189,-0.054 12.537,0.200 L23.382,8.098 C23.703,8.263 23.923,8.599 23.923,8.985 C23.923,9.536 23.477,9.983 22.927,9.983 ZM16.931,16.964 L18.923,16.964 L18.923,9.983 L16.931,9.983 L16.931,16.964 ZM12.947,16.964 L14.939,16.964 L14.939,9.983 L12.947,9.983 L12.947,16.964 ZM10.955,16.964 L10.955,9.983 L8.963,9.983 L8.963,16.964 L10.955,16.964 ZM4.940,16.964 L6.971,16.964 L6.971,9.983 L4.940,9.983 L4.940,16.964 ZM11.951,2.240 L4.058,7.988 L19.844,7.988 L11.951,2.240 ZM0.995,19.956 L22.907,19.956 C23.458,19.956 23.903,20.403 23.903,20.954 C23.903,21.505 23.458,21.951 22.907,21.951 L0.995,21.951 C0.445,21.951 -0.001,21.505 -0.001,20.954 C-0.001,20.403 0.445,19.956 0.995,19.956 Z" class="cls-1"/>
</svg>
